<svg width="16" height="16" viewBox="0 0 16 16" fill="none" xmlns="http://www.w3.org/2000/svg">
<rect x="0.5" y="0.5" width="15" height="15" rx="7.5" stroke="#212121" stroke-opacity="0.5"/>
<path d="M5.62 13V4.6H8.764C9.828 4.6 10.664 4.84 11.272 5.32C11.888 5.8 12.196 6.488 12.196 7.384C12.196 8.288 11.888 8.98 11.272 9.46C10.664 9.94 9.828 10.18 8.764 10.18H6.112L6.508 9.76V13H5.62ZM6.508 9.832L6.112 9.424H8.776C9.592 9.424 10.216 9.248 10.648 8.896C11.088 8.544 11.308 8.044 11.308 7.396C11.308 6.748 11.088 6.248 10.648 5.896C10.216 5.544 9.592 5.368 8.776 5.368H6.112L6.508 4.948V9.832ZM4.36 11.44V10.912H9.208V11.44H4.36Z" fill="#212121" fill-opacity="0.5"/>
</svg>
